<mxfile host="app.diagrams.net" modified="2022-08-08T15:43:17.865Z" agent="5.0 (Macintosh; Intel Mac OS X 10_15_7) AppleWebKit/537.36 (KHTML, like Gecko) Chrome/103.0.0.0 Safari/537.36" etag="m2e2ka9WmXq6JVtwC9QY" version="20.2.3" type="github">
  <diagram id="BBqtod2U-lPaepemYp6R" name="페이지-1">
    <mxGraphModel dx="1375" dy="728" grid="0" gridSize="10" guides="1" tooltips="1" connect="1" arrows="1" fold="1" page="0" pageScale="1" pageWidth="827" pageHeight="1169" math="0" shadow="0">
      <root>
        <mxCell id="0" />
        <mxCell id="1" parent="0" />
        <mxCell id="-cTyCgmaQRLAnvsdeqGp-1" value="test" style="rounded=0;whiteSpace=wrap;html=1;hachureGap=4;" vertex="1" parent="1">
          <mxGeometry x="120" y="247" width="160" height="80" as="geometry" />
        </mxCell>
      </root>
    </mxGraphModel>
  </diagram>
</mxfile>
